<svg xmlns="http://www.w3.org/2000/svg" width="158.309" height="47.573" viewBox="0 0 158.309 47.573">
  <g id="Layer_x0020_1" transform="translate(0.115 -0.06)">
    <g id="_1858055597232" transform="translate(-0.115 0.06)">
      <path id="Path_1919" data-name="Path 1919" d="M12712,2363h6.971l.011,11.964v.228a5.484,5.484,0,0,0,.684,2.937,2.139,2.139,0,0,0,1.916.975,4.215,4.215,0,0,0,1.778-.477,11.539,11.539,0,0,0,2.2-1.463l-.021-14.164h7.012l-.022,21.446h-6.88l.032-2.677a17.923,17.923,0,0,1-3.988,2.4,9.461,9.461,0,0,1-3.618.8,5.587,5.587,0,0,1-4.424-1.788,7.7,7.7,0,0,1-1.625-5.061v-.249Z" transform="translate(-12574.238 -2337.393)" fill="#fcfcfc"/>
      <path id="Path_1920" data-name="Path 1920" d="M11391.721,2373.087l-.347,6.329a2.942,2.942,0,0,0-.3-.043h-.477a5.578,5.578,0,0,0-3.056.878,8.942,8.942,0,0,0-2.569,2.774v11.833h-6.922l-.046-21.435h6.6l.034,4.269a9.445,9.445,0,0,1,2.556-3.652,5.7,5.7,0,0,1,3.576-1.041c.153,0,.424.021.824.065C11391.645,2373.065,11391.7,2373.065,11391.721,2373.087Z" transform="translate(-11254.7 -2347.284)" fill="#fcfcfc"/>
      <path id="Path_1921" data-name="Path 1921" d="M9204,2363h6.968v11.964l.01.228a5.531,5.531,0,0,0,.682,2.937,2.138,2.138,0,0,0,1.92.975,4.236,4.236,0,0,0,1.776-.477,11.6,11.6,0,0,0,2.2-1.463l-.032-14.164h7.012l-.011,21.446h-6.892l.043-2.677a17.9,17.9,0,0,1-3.988,2.4,9.465,9.465,0,0,1-3.619.8,5.557,5.557,0,0,1-4.422-1.788,7.572,7.572,0,0,1-1.625-5.061l-.012-.249Z" transform="translate(-9104.258 -2337.393)" fill="#fcfcfc"/>
      <path id="Path_1922" data-name="Path 1922" d="M6463.671,12.066c.065.238.118.466.162.694a7.573,7.573,0,0,1,.109,1.073,8.2,8.2,0,0,1-2.611,6.22,9.025,9.025,0,0,1-6.579,2.59c-.335,0-.78-.011-1.344-.065s-1.57-.152-3.056-.325a4,4,0,0,0-.616.943,1.71,1.71,0,0,0-.2.834,1.5,1.5,0,0,0,.53,1.181,2.94,2.94,0,0,0,1.518.618l6.838,1.268a11.5,11.5,0,0,1,6.329,3.013,8.125,8.125,0,0,1,2.3,5.809,10.17,10.17,0,0,1-4,8.409q-4.1,3.3-10.74,3.305a14.6,14.6,0,0,1-8.257-2.059,6.429,6.429,0,0,1-3.121-5.494,6.7,6.7,0,0,1,1.431-4.237,13.4,13.4,0,0,1,4.433-3.5,9.76,9.76,0,0,1-4.161-1.9,3.751,3.751,0,0,1-1.529-2.893,3.945,3.945,0,0,1,.737-2.341,9.947,9.947,0,0,1,2.493-2.341l2.882-2.059a8.929,8.929,0,0,1-3.456-3.11,8.116,8.116,0,0,1-1.258-4.356,8.768,8.768,0,0,1,2.959-6.849,10.91,10.91,0,0,1,7.661-2.785,16.568,16.568,0,0,1,3.294.325,8.667,8.667,0,0,1,1.387.477,5.825,5.825,0,0,1,1.876-3.11c1.225-1.062,4.789-2.362,5.287-.076a2.226,2.226,0,0,1-.8,1.94c-1.506,1.441-3.012.531-4.983,2A11.086,11.086,0,0,1,6463.671,12.066Zm-9.883-3.62a3.031,3.031,0,0,0-2.622,1.409,6.383,6.383,0,0,0-.942,3.8,5.236,5.236,0,0,0,1,3.262,3.023,3.023,0,0,0,2.514,1.214,2.794,2.794,0,0,0,2.472-1.365,6.533,6.533,0,0,0,.877-3.76,5.634,5.634,0,0,0-.963-3.284A2.808,2.808,0,0,0,6453.788,8.447Zm-2.558,24.99a7.255,7.255,0,0,0-2.168,2.124,4.532,4.532,0,0,0-.682,2.492,3.985,3.985,0,0,0,1.289,3.023,4.964,4.964,0,0,0,3.393,1.116,5.52,5.52,0,0,0,3.912-1.42,4.518,4.518,0,0,0,1.518-3.533,3.29,3.29,0,0,0-1.584-2.883,8.563,8.563,0,0,0-4.507-.975c-.108,0-.3.011-.575.033S6451.35,33.436,6451.23,33.436Z" transform="translate(-6371.135 -0.06)" fill="#6a9133"/>
      <path id="Path_1923" data-name="Path 1923" d="M45.563,1424.284h6.968l.011,11.964v.228a5.5,5.5,0,0,0,.683,2.937,2.132,2.132,0,0,0,1.918.975,4.241,4.241,0,0,0,1.777-.477,11.665,11.665,0,0,0,2.2-1.463l-.033-14.164H66.1l-.011,21.446H59.2l.043-2.677a17.9,17.9,0,0,1-3.988,2.4,9.456,9.456,0,0,1-3.62.8,5.585,5.585,0,0,1-4.421-1.788,7.571,7.571,0,0,1-1.626-5.061l-.011-.249ZM36.005,1414h6.881l.065,31.731H36.146v-2.5a7.55,7.55,0,0,1-6.21,2.98,7.637,7.637,0,0,1-6.22-3,12.423,12.423,0,0,1-2.5-7.824,12.046,12.046,0,0,1,2.59-8.128,8.223,8.223,0,0,1,6.665-3.305,8.816,8.816,0,0,1,2.948.5,8.925,8.925,0,0,1,2.6,1.474Zm.011,17.014a5.2,5.2,0,0,0-1.571-1.246,3.823,3.823,0,0,0-4.963,1.29,7.056,7.056,0,0,0-1.225,4.389,6.368,6.368,0,0,0,1.138,3.826,3.422,3.422,0,0,0,2.839,1.452,4,4,0,0,0,2.026-.563,6.276,6.276,0,0,0,1.8-1.669Zm-21.1.715a5.022,5.022,0,0,0-1.181-3.078,3.419,3.419,0,0,0-2.655-1.127,4.133,4.133,0,0,0-2.958,1.084,5.264,5.264,0,0,0-1.485,3.078Zm5.679,4.01H6.626a6.394,6.394,0,0,0,1.766,3.923,5.145,5.145,0,0,0,3.717,1.419,9.371,9.371,0,0,0,3-.487,10.786,10.786,0,0,0,2.807-1.442l1.723,4.237a28.358,28.358,0,0,1-4.909,2.2,13.866,13.866,0,0,1-4.194.661,10.072,10.072,0,0,1-7.7-3.034,11.891,11.891,0,0,1-2.948-8.247,12.064,12.064,0,0,1,.791-4.66,11.019,11.019,0,0,1,2.547-3.814,10.238,10.238,0,0,1,3.349-2.211,10.4,10.4,0,0,1,3.977-.78,8.983,8.983,0,0,1,7.261,3.175q2.682,3.17,2.785,8.7Z" transform="translate(0.115 -1398.677)" fill="#fcfcfc"/>
    </g>
  </g>
</svg>
