<svg id="Group_139" data-name="Group 139" xmlns="http://www.w3.org/2000/svg" width="34.893" height="34.893" viewBox="0 0 34.893 34.893">
  <path id="Path_268" data-name="Path 268" d="M8.848,34.769A11.747,11.747,0,0,1,4.9,34.037a6.612,6.612,0,0,1-2.447-1.592A6.561,6.561,0,0,1,.855,30a11.747,11.747,0,0,1-.731-3.952C.021,23.8,0,23.131,0,17.446s.023-6.355.123-8.6A11.813,11.813,0,0,1,.855,4.9,6.636,6.636,0,0,1,2.447,2.447,6.57,6.57,0,0,1,4.895.855,11.747,11.747,0,0,1,8.847.123C11.091.021,11.765,0,17.446,0s6.355.023,8.6.123A11.813,11.813,0,0,1,30,.855a6.586,6.586,0,0,1,2.447,1.592,6.591,6.591,0,0,1,1.592,2.448,11.748,11.748,0,0,1,.732,3.952c.1,2.245.123,2.917.123,8.6s-.021,6.355-.123,8.6A11.8,11.8,0,0,1,34.037,30,7.047,7.047,0,0,1,30,34.037a11.748,11.748,0,0,1-3.952.732c-2.243.1-2.917.123-8.6.123s-6.355-.02-8.6-.123" fill="#fff"/>
  <path id="Path_269" data-name="Path 269" d="M444.492,452.484a4.321,4.321,0,1,1,4.321,4.321,4.321,4.321,0,0,1-4.321-4.321m-2.336,0a6.656,6.656,0,1,0,6.656-6.656,6.656,6.656,0,0,0-6.656,6.656m12.02-6.92a1.555,1.555,0,1,0,1.556-1.555h0a1.556,1.556,0,0,0-1.556,1.555m-10.6,17.471a7.163,7.163,0,0,1-2.407-.445,4.293,4.293,0,0,1-2.461-2.46,7.159,7.159,0,0,1-.445-2.407c-.063-1.366-.075-1.777-.075-5.238s.014-3.871.075-5.239a7.211,7.211,0,0,1,.445-2.407,4.291,4.291,0,0,1,2.461-2.461,7.158,7.158,0,0,1,2.407-.445c1.366-.063,1.777-.075,5.237-.075s3.871.013,5.239.076a7.214,7.214,0,0,1,2.407.445,4.29,4.29,0,0,1,2.461,2.461,7.16,7.16,0,0,1,.445,2.407c.063,1.368.075,1.777.075,5.239s-.013,3.871-.075,5.239a7.191,7.191,0,0,1-.445,2.407,4.292,4.292,0,0,1-2.461,2.46,7.159,7.159,0,0,1-2.407.445c-1.366.063-1.777.075-5.239.075s-3.871-.013-5.237-.075m-.107-23.436a9.5,9.5,0,0,0-3.147.6,6.627,6.627,0,0,0-3.791,3.791,9.507,9.507,0,0,0-.6,3.147c-.064,1.382-.078,1.824-.078,5.344s.015,3.962.078,5.344a9.506,9.506,0,0,0,.6,3.147,6.628,6.628,0,0,0,3.791,3.791,9.517,9.517,0,0,0,3.147.6c1.383.063,1.824.078,5.344.078s3.962-.015,5.344-.078a9.515,9.515,0,0,0,3.147-.6,6.628,6.628,0,0,0,3.791-3.791,9.482,9.482,0,0,0,.6-3.147c.063-1.383.077-1.824.077-5.344s-.015-3.962-.077-5.344a9.507,9.507,0,0,0-.6-3.147,6.629,6.629,0,0,0-3.79-3.791,9.492,9.492,0,0,0-3.147-.6c-1.382-.063-1.824-.078-5.344-.078s-3.962.015-5.345.078" transform="translate(-431.33 -434.963)" fill="#121212"/>
</svg>
