<svg xmlns="http://www.w3.org/2000/svg" width="36.583" height="36.583" viewBox="0 0 36.583 36.583">
  <path id="Path_277" data-name="Path 277" d="M47.894,16h-27.2A4.706,4.706,0,0,0,16,20.689V47.894a4.706,4.706,0,0,0,4.689,4.689h27.2a4.706,4.706,0,0,0,4.689-4.689V20.689A4.706,4.706,0,0,0,47.894,16ZM28.575,33.667V44.961H23.621V30.709h4.954Zm-2.487-5.082a2.5,2.5,0,1,1,2.5-2.5A2.5,2.5,0,0,1,26.088,28.585Zm18.873,8.6v7.774H40.693V38.039c0-1.658-.179-3.79-2.451-3.79-2.306,0-2.655,1.8-2.655,3.67v7.042H31.471V30.709h3.963v1.905h.042c.591-1.067,2.039-1.907,4.2-1.907,3.633,0,4.868,1.718,5.206,4.406a16.485,16.485,0,0,1,.111,2.074Z" transform="translate(-16 -16)" fill="#fff" fill-rule="evenodd"/>
</svg>
