<svg xmlns="http://www.w3.org/2000/svg" width="20.757" height="19.776" viewBox="0 0 20.757 19.776">
  <path id="Path_84517" data-name="Path 84517" d="M11.782,11.113a4.94,4.94,0,0,1,4.151-1.938,4.856,4.856,0,0,1,4.758,4.968c.12,2.6.035,5.2.054,7.8,0,.624-.288.857-.887.842-.8-.02-1.607-.039-2.408.008s-1.1-.272-1.082-1.061c.031-1.765.012-3.532.009-5.3,0-.481,0-.965-.033-1.444a2.259,2.259,0,0,0-2.276-2.367,2.461,2.461,0,0,0-2.422,2.493c-.034,2.087-.014,4.174-.018,6.261,0,1.4,0,1.4-1.384,1.407C7.26,22.8,7.261,22.8,7.26,19.82c0-3.05.021-6.1-.023-9.151-.013-.883.282-1.237,1.163-1.154.509.048,1.027.005,1.541.007C11.474,9.529,11.474,9.53,11.782,11.113ZM.311,16.1c0-1.829.034-3.66-.015-5.488-.022-.855.3-1.151,1.128-1.1.8.049,1.6.028,2.406.011.6-.012.875.233.872.855q-.021,5.777-.009,11.554c0,.617-.265.871-.872.858-.866-.018-1.734-.025-2.6,0-.664.022-.914-.262-.907-.916.021-1.925.007-3.851.007-5.777Zm2.15-8.487A2.329,2.329,0,0,1,0,5.322a2.343,2.343,0,0,1,2.456-2.3,2.294,2.294,0,0,1,2.529,2.3A2.262,2.262,0,0,1,2.462,7.611Z" transform="translate(0 -3.023)" fill="#b1b1b1" fill-rule="evenodd"/>
</svg>
