<svg xmlns="http://www.w3.org/2000/svg" width="184.831" height="55.544" viewBox="0 0 184.831 55.544">
  <g id="Layer_x0020_1" transform="translate(0.115 -0.06)">
    <g id="_1858055597232" transform="translate(-0.115 0.06)">
      <path id="Path_1919" data-name="Path 1919" d="M12712,2363h8.137l.014,13.969v.266a6.392,6.392,0,0,0,.8,3.428,2.5,2.5,0,0,0,2.236,1.139,4.921,4.921,0,0,0,2.076-.556,13.5,13.5,0,0,0,2.568-1.708L12727.8,2363h8.188l-.027,25.039h-8.033l.039-3.126a20.942,20.942,0,0,1-4.658,2.8,11.033,11.033,0,0,1-4.223.936,6.525,6.525,0,0,1-5.166-2.088,8.984,8.984,0,0,1-1.9-5.909v-.291Z" transform="translate(-12551.159 -2333.103)" fill="#2b2a29"/>
      <path id="Path_1920" data-name="Path 1920" d="M11394.02,2373.1l-.406,7.389a3.366,3.366,0,0,0-.354-.051h-.557a6.516,6.516,0,0,0-3.568,1.025,10.489,10.489,0,0,0-3,3.239v13.816h-8.08l-.055-25.026h7.705l.041,4.984a11.007,11.007,0,0,1,2.984-4.263,6.652,6.652,0,0,1,4.176-1.215c.178,0,.494.025.961.076C11393.93,2373.076,11393.994,2373.076,11394.02,2373.1Z" transform="translate(-11234.042 -2342.976)" fill="#2b2a29"/>
      <path id="Path_1921" data-name="Path 1921" d="M9204,2363h8.135v13.969l.013.266a6.448,6.448,0,0,0,.8,3.428,2.5,2.5,0,0,0,2.24,1.139,4.939,4.939,0,0,0,2.074-.556,13.56,13.56,0,0,0,2.569-1.708L9219.79,2363h8.187l-.013,25.039h-8.045l.05-3.126a20.893,20.893,0,0,1-4.657,2.8,11.047,11.047,0,0,1-4.226.936,6.486,6.486,0,0,1-5.162-2.088,8.844,8.844,0,0,1-1.9-5.909l-.013-.291Z" transform="translate(-9087.547 -2333.103)" fill="#2b2a29"/>
      <path id="Path_1922" data-name="Path 1922" d="M6467.479,14.078c.076.278.139.544.189.81a8.869,8.869,0,0,1,.127,1.253,9.568,9.568,0,0,1-3.048,7.262,10.538,10.538,0,0,1-7.682,3.024c-.392,0-.91-.013-1.568-.076s-1.834-.177-3.568-.38a4.724,4.724,0,0,0-.72,1.1,2,2,0,0,0-.229.974,1.752,1.752,0,0,0,.619,1.379,3.433,3.433,0,0,0,1.771.721l7.983,1.48a13.429,13.429,0,0,1,7.39,3.517,9.482,9.482,0,0,1,2.682,6.782,11.874,11.874,0,0,1-4.668,9.818q-4.783,3.853-12.539,3.859-6.056,0-9.641-2.4a7.5,7.5,0,0,1-3.644-6.415,7.821,7.821,0,0,1,1.67-4.947,15.659,15.659,0,0,1,5.175-4.087,11.4,11.4,0,0,1-4.858-2.214,4.383,4.383,0,0,1-1.785-3.378,4.607,4.607,0,0,1,.861-2.733,11.616,11.616,0,0,1,2.91-2.733l3.365-2.4a10.428,10.428,0,0,1-4.035-3.631,9.482,9.482,0,0,1-1.469-5.086,10.235,10.235,0,0,1,3.455-8,12.735,12.735,0,0,1,8.944-3.252,19.354,19.354,0,0,1,3.847.38,10.138,10.138,0,0,1,1.618.557,6.8,6.8,0,0,1,2.19-3.631c1.43-1.24,5.591-2.758,6.173-.089a2.6,2.6,0,0,1-.936,2.265c-1.759,1.683-3.517.62-5.819,2.341A12.939,12.939,0,0,1,6467.479,14.078Zm-11.538-4.226a3.538,3.538,0,0,0-3.062,1.645,7.463,7.463,0,0,0-1.1,4.441,6.114,6.114,0,0,0,1.164,3.808,3.527,3.527,0,0,0,2.935,1.417,3.261,3.261,0,0,0,2.886-1.594,7.634,7.634,0,0,0,1.024-4.39,6.58,6.58,0,0,0-1.125-3.834A3.276,3.276,0,0,0,6455.941,9.852Zm-2.987,29.176a8.471,8.471,0,0,0-2.53,2.48,5.288,5.288,0,0,0-.8,2.91,4.652,4.652,0,0,0,1.5,3.53,5.8,5.8,0,0,0,3.961,1.3,6.446,6.446,0,0,0,4.567-1.657,5.272,5.272,0,0,0,1.771-4.125,3.84,3.84,0,0,0-1.849-3.366,10,10,0,0,0-5.262-1.139c-.127,0-.355.013-.672.038S6453.094,39.028,6452.954,39.028Z" transform="translate(-6359.441 -0.06)" fill="#6a9133"/>
      <path id="Path_1923" data-name="Path 1923" d="M53.216,1426.007h8.135l.013,13.968v.266a6.427,6.427,0,0,0,.8,3.428,2.489,2.489,0,0,0,2.239,1.139,4.954,4.954,0,0,0,2.075-.556,13.609,13.609,0,0,0,2.568-1.708l-.038-16.537h8.186l-.013,25.039H69.132l.051-3.125a20.894,20.894,0,0,1-4.656,2.8,11.042,11.042,0,0,1-4.226.936,6.521,6.521,0,0,1-5.162-2.087,8.839,8.839,0,0,1-1.9-5.909l-.013-.291ZM42.056,1414h8.034l.076,37.046H42.221v-2.923a8.815,8.815,0,0,1-7.25,3.479,8.917,8.917,0,0,1-7.262-3.5,14.5,14.5,0,0,1-2.923-9.135,14.064,14.064,0,0,1,3.024-9.489,9.6,9.6,0,0,1,7.781-3.859,10.293,10.293,0,0,1,3.441.582,10.417,10.417,0,0,1,3.037,1.721Zm.013,19.865a6.073,6.073,0,0,0-1.835-1.455,4.464,4.464,0,0,0-5.795,1.506,8.238,8.238,0,0,0-1.43,5.124,7.435,7.435,0,0,0,1.328,4.467,4,4,0,0,0,3.315,1.7,4.667,4.667,0,0,0,2.366-.658,7.325,7.325,0,0,0,2.1-1.948Zm-24.634.835a5.864,5.864,0,0,0-1.379-3.594,3.992,3.992,0,0,0-3.1-1.316,4.826,4.826,0,0,0-3.454,1.265,6.146,6.146,0,0,0-1.733,3.593Zm6.63,4.681H7.756a7.465,7.465,0,0,0,2.062,4.58,6.007,6.007,0,0,0,4.34,1.657,10.94,10.94,0,0,0,3.5-.569,12.6,12.6,0,0,0,3.277-1.683l2.012,4.947a33.111,33.111,0,0,1-5.732,2.568,16.189,16.189,0,0,1-4.9.772,11.759,11.759,0,0,1-9-3.542c-2.227-2.366-3.366-5.58-3.441-9.629a14.087,14.087,0,0,1,.924-5.441,12.866,12.866,0,0,1,2.973-4.453,11.954,11.954,0,0,1,3.91-2.581,12.146,12.146,0,0,1,4.643-.911,10.489,10.489,0,0,1,8.477,3.707q3.131,3.7,3.252,10.16Z" transform="translate(0.115 -1396.11)" fill="#2b2a29"/>
    </g>
  </g>
</svg>
