<svg xmlns="http://www.w3.org/2000/svg" width="48.909" height="59.667" viewBox="0 0 48.909 59.667">
  <g id="Group_56587" data-name="Group 56587" transform="translate(0.969 0.75)">
    <path id="Path_84494" data-name="Path 84494" d="M18.6,36.7v6.561a3.258,3.258,0,0,0,3.281,3.281H29.7a3.258,3.258,0,0,0,3.281-3.281V36.7Z" transform="translate(-3.08 7.083)" fill="#6eb0ff"/>
    <path id="Path_84495" data-name="Path 84495" d="M10.523,22.994a17.589,17.589,0,0,0,10.22,18.043V51a3.258,3.258,0,0,0,3.281,3.281h7.823A3.258,3.258,0,0,0,35.128,51V40.911a17.561,17.561,0,0,0,10.346-15.9A17.353,17.353,0,0,0,26.043,7.727,17.684,17.684,0,0,0,10.523,22.994Z" transform="translate(-5.224 -0.535)" fill="none" stroke="#682f2a" stroke-linecap="round" stroke-linejoin="round" stroke-width="1.5"/>
    <path id="Path_84496" data-name="Path 84496" d="M21.926,44.5h5.93v2.9a1.67,1.67,0,0,1-1.64,1.64H23.44A1.67,1.67,0,0,1,21.8,47.4V44.5Z" transform="translate(-2.243 9.125)" fill="none" stroke="#682f2a" stroke-linecap="round" stroke-linejoin="round" stroke-width="1.5"/>
    <path id="Path_84497" data-name="Path 84497" d="M27,37.092a13,13,0,1,0-13-13A12.978,12.978,0,0,0,27,37.092Z" transform="translate(-4.284 0.382)" fill="#6eb0ff" stroke="#682f2a" stroke-linecap="round" stroke-linejoin="round" stroke-width="1.5"/>
    <path id="Path_84498" data-name="Path 84498" d="M26.08,31.76a8.58,8.58,0,1,0-8.58-8.58A8.589,8.589,0,0,0,26.08,31.76Z" transform="translate(-3.368 1.298)" fill="#fff" stroke="#682f2a" stroke-linecap="round" stroke-linejoin="round" stroke-width="1.5"/>
    <path id="Path_84499" data-name="Path 84499" d="M25.164,26.428A4.164,4.164,0,1,0,21,22.264,4.2,4.2,0,0,0,25.164,26.428Z" transform="translate(-2.452 2.214)" fill="#6eb0ff" stroke="#682f2a" stroke-linecap="round" stroke-linejoin="round" stroke-width="1.5"/>
    <line id="Line_2745" data-name="Line 2745" x1="18.8" transform="translate(13.248 44.162)" fill="none" stroke="#682f2a" stroke-linecap="round" stroke-linejoin="round" stroke-width="1.5"/>
    <line id="Line_2746" data-name="Line 2746" x1="18.8" transform="translate(13.248 47.316)" fill="none" stroke="#682f2a" stroke-linecap="round" stroke-linejoin="round" stroke-width="1.5"/>
    <line id="Line_2747" data-name="Line 2747" x1="18.8" transform="translate(13.248 50.344)" fill="none" stroke="#682f2a" stroke-linecap="round" stroke-linejoin="round" stroke-width="1.5"/>
    <line id="Line_2748" data-name="Line 2748" x1="15.141" transform="translate(7.571 24.478)" fill="none" stroke="#682f2a" stroke-linecap="round" stroke-linejoin="round" stroke-width="1.5"/>
    <line id="Line_2749" data-name="Line 2749" x1="1.766" transform="translate(45.423 24.478)" fill="none" stroke="#682f2a" stroke-linecap="round" stroke-linejoin="round" stroke-width="1.5"/>
    <line id="Line_2750" data-name="Line 2750" y2="1.766" transform="translate(22.712)" fill="none" stroke="#682f2a" stroke-linecap="round" stroke-linejoin="round" stroke-width="1.5"/>
    <line id="Line_2751" data-name="Line 2751" x1="1.262" y2="1.262" transform="translate(38.736 7.192)" fill="none" stroke="#682f2a" stroke-linecap="round" stroke-linejoin="round" stroke-width="1.5"/>
    <line id="Line_2752" data-name="Line 2752" x1="1.262" y2="1.136" transform="translate(5.299 40.629)" fill="none" stroke="#682f2a" stroke-linecap="round" stroke-linejoin="round" stroke-width="1.5"/>
    <line id="Line_2753" data-name="Line 2753" x2="1.262" y2="1.262" transform="translate(5.299 7.192)" fill="none" stroke="#682f2a" stroke-linecap="round" stroke-linejoin="round" stroke-width="1.5"/>
    <line id="Line_2754" data-name="Line 2754" x2="1.262" y2="1.136" transform="translate(38.736 40.629)" fill="none" stroke="#682f2a" stroke-linecap="round" stroke-linejoin="round" stroke-width="1.5"/>
    <line id="Line_2755" data-name="Line 2755" x1="1.64" y1="0.631" transform="translate(43.657 33.184)" fill="none" stroke="#682f2a" stroke-linecap="round" stroke-linejoin="round" stroke-width="1.5"/>
    <line id="Line_2756" data-name="Line 2756" x1="1.64" y1="0.631" transform="translate(0 15.141)" fill="none" stroke="#682f2a" stroke-linecap="round" stroke-linejoin="round" stroke-width="1.5"/>
    <line id="Line_2757" data-name="Line 2757" x1="0.631" y2="1.514" transform="translate(31.418 1.893)" fill="none" stroke="#682f2a" stroke-linecap="round" stroke-linejoin="round" stroke-width="1.5"/>
    <line id="Line_2758" data-name="Line 2758" x1="1.64" y2="0.631" transform="translate(43.657 15.141)" fill="none" stroke="#682f2a" stroke-linecap="round" stroke-linejoin="round" stroke-width="1.5"/>
    <line id="Line_2759" data-name="Line 2759" x1="1.64" y2="0.631" transform="translate(0 33.184)" fill="none" stroke="#682f2a" stroke-linecap="round" stroke-linejoin="round" stroke-width="1.5"/>
    <line id="Line_2760" data-name="Line 2760" x2="0.757" y2="1.514" transform="translate(13.248 1.893)" fill="none" stroke="#682f2a" stroke-linecap="round" stroke-linejoin="round" stroke-width="1.5"/>
    <path id="Path_84500" data-name="Path 84500" d="M14.775,18H6.7l2.9,4.29h7.949Z" transform="translate(-6.195 2.188)" fill="#6eb0ff" stroke="#682f2a" stroke-linecap="round" stroke-linejoin="round" stroke-width="1.5"/>
    <path id="Path_84501" data-name="Path 84501" d="M9.6,21.4h7.949l-2.776,4.29H6.7Z" transform="translate(-6.195 3.078)" fill="#6eb0ff" stroke="#682f2a" stroke-linecap="round" stroke-linejoin="round" stroke-width="1.5"/>
  </g>
</svg>
