<svg xmlns="http://www.w3.org/2000/svg" width="53.983" height="50.566" viewBox="0 0 53.983 50.566">
  <g id="Group_56599" data-name="Group 56599" transform="translate(0.25 0.25)">
    <path id="Path_84503" data-name="Path 84503" d="M28.045,9.064,38.2,19.219l2.949-.477L28.524,6.117Z" transform="translate(-7.856 4.03)" fill="#6eb0ff"/>
    <path id="Path_84504" data-name="Path 84504" d="M44.124,13.178a5.5,5.5,0,0,1-.007,7.782l-7.781-7.782a5.505,5.505,0,0,1,7.788,0Z" transform="translate(-8.478 -6.115)" fill="#6eb0ff"/>
    <path id="Path_84505" data-name="Path 84505" d="M30.784,35.265l7.52,7.521a2.671,2.671,0,0,1-3.777,3.777l-7.52-7.521Z" transform="translate(-4.573 -10.01)" fill="#6eb0ff"/>
    <g id="Group_56592" data-name="Group 56592">
      <path id="Path_84506" data-name="Path 84506" d="M16.723,36.11a3.507,3.507,0,0,0,4.952,0l1.3-1.3.5.5a2.815,2.815,0,0,0,3.986,0l.054-.053,6.929,6.929a3.506,3.506,0,0,0,4.959-4.958L32.479,30.3l1.264-1.264,13.289-2.151a.836.836,0,0,0,.457-1.416L27.37,5.35a.836.836,0,0,0-1.416.457L23.8,19.089l-6.277,6.276a2.824,2.824,0,0,0,0,3.988l.5.5-1.3,1.3a3.506,3.506,0,0,0,0,4.953Zm21.5,4.9a1.838,1.838,0,0,1-2.6,0L28.7,34.076l2.6-2.595,2.164,2.164-1.3,1.3a.836.836,0,1,0,1.182,1.182l1.3-1.3,1.534,1.534-1.3,1.3a.836.836,0,1,0,1.182,1.182l1.3-1.3.867.867a1.837,1.837,0,0,1,0,2.595ZM27.342,7.685,45.152,25.5,33.637,27.36,25.472,19.2l1.87-11.512ZM18.7,26.546l5.879-5.878,7.583,7.583L26.284,34.13a1.175,1.175,0,0,1-1.623,0L18.7,28.171a1.151,1.151,0,0,1,0-1.625Zm-.8,5.792,1.3-1.3,2.589,2.589-1.3,1.3a1.831,1.831,0,1,1-2.589-2.59ZM38.238,9.384h.036a.836.836,0,0,0,.8-.871l-.113-2.669a.827.827,0,0,0-.869-.8.836.836,0,0,0-.8.87L37.4,8.584A.836.836,0,0,0,38.238,9.384Zm4.939,1.453,1.889-1.889a.837.837,0,0,0-1.182-1.182L41.995,9.655a.836.836,0,1,0,1.182,1.182Zm1.1,2.921a.836.836,0,0,0-.033,1.67l2.669.112h.036a.836.836,0,0,0,.033-1.67l-2.67-.112Z" transform="translate(-5.087 -5.044)" fill="#682f2a" stroke="#682f2a" stroke-width="0.5"/>
      <path id="Path_84507" data-name="Path 84507" d="M55.647,50.062H53.638V21.333a2.456,2.456,0,0,0-2.457-2.448h-4.17a.836.836,0,0,0,0,1.671h4.17a.773.773,0,0,1,.786.777V50.062H35.736a.836.836,0,0,0-.656.318L33.1,52.887H26.377l-1.969-2.5a.836.836,0,0,0-.663-.326H7.517V21.332a.773.773,0,0,1,.786-.777h4.162a.836.836,0,1,0,0-1.671H8.3a2.456,2.456,0,0,0-2.457,2.448V50.061H3.836A.836.836,0,0,0,3,50.9v1.6a4.89,4.89,0,0,0,4.884,4.884H51.6A4.89,4.89,0,0,0,56.483,52.5V50.9A.836.836,0,0,0,55.647,50.062ZM54.811,52.5A3.216,3.216,0,0,1,51.6,55.713H7.884A3.216,3.216,0,0,1,4.671,52.5v-.767h18.7c.359.5.962,1.264,1.942,2.507a.836.836,0,0,0,.656.318h7.538a.836.836,0,0,0,.657-.318l1.976-2.507h18.67Z" transform="translate(-3 -7.318)" fill="#682f2a" stroke="#682f2a" stroke-width="0.5"/>
    </g>
  </g>
</svg>
