<svg id="Group_140" data-name="Group 140" xmlns="http://www.w3.org/2000/svg" width="35.89" height="35.89" viewBox="0 0 35.89 35.89">
  <path id="Path_270" data-name="Path 270" d="M39.89,9.127A5.126,5.126,0,0,0,34.762,4H9.127A5.126,5.126,0,0,0,4,9.127V34.762A5.126,5.126,0,0,0,9.127,39.89H34.762a5.126,5.126,0,0,0,5.127-5.127V9.127Z" transform="translate(-4 -4)" fill="#fff" fill-rule="evenodd"/>
  <path id="Path_271" data-name="Path 271" d="M14.718,36.587h2.564l6.845-7.78,5.954,7.768h6.96L27.907,24.5l7.729-8.78H33.073l-6.351,7.216-5.448-7.21H14.09l8.838,11.53-8.216,9.338Zm3.275-18.945h2.333L33.182,34.652H31.035L18,17.643Z" transform="translate(-7.623 -8.209)" fill="#121212"/>
</svg>
