<svg xmlns="http://www.w3.org/2000/svg" width="29.545" height="29.544" viewBox="0 0 29.545 29.544">
  <g id="Group_65279" data-name="Group 65279" transform="translate(-1.854 -1.854)">
    <path id="Path_84553" data-name="Path 84553" d="M13.535,25.216A11.681,11.681,0,1,1,25.216,13.535,11.694,11.694,0,0,1,13.535,25.216Zm0-21.026a9.345,9.345,0,1,0,9.345,9.345A9.356,9.356,0,0,0,13.535,4.19Z" fill="#fff"/>
    <path id="Path_84554" data-name="Path 84554" d="M27.607,28.776a1.165,1.165,0,0,1-.826-.342l-8.987-8.987a1.168,1.168,0,0,1,1.652-1.652l8.987,8.987a1.167,1.167,0,0,1-.826,1.994Z" transform="translate(2.622 2.622)" fill="#fff"/>
  </g>
</svg>
