<svg xmlns="http://www.w3.org/2000/svg" width="42.602" height="35.263" viewBox="0 0 42.602 35.263">
  <g id="Group_56601" data-name="Group 56601" transform="translate(-63.4 -140.7)">
    <path id="Path_84510" data-name="Path 84510" d="M154.443,424.664a4.967,4.967,0,0,1-3.859-1.951,6.87,6.87,0,0,1-1.51-4.344,5.038,5.038,0,0,1,5.369-5.269,5.5,5.5,0,0,1,3.76,1.329,5.124,5.124,0,0,1,1.609,3.94,6.873,6.873,0,0,1-1.51,4.348A4.976,4.976,0,0,1,154.443,424.664Zm0-9.665a3.19,3.19,0,0,0-3.47,3.371,5.021,5.021,0,0,0,1.082,3.143,2.9,2.9,0,0,0,4.776,0,5.025,5.025,0,0,0,1.082-3.147A3.19,3.19,0,0,0,154.443,415ZM148.4,433.181h1.9v2.25h-1.9Z" transform="translate(-80.965 -259.469)"/>
    <path id="Path_84511" data-name="Path 84511" d="M83.557,680.7h-1.9v-4.1a2.284,2.284,0,0,0-1.358-2.084l-4.159-1.851-2.677,3.451-2.635-3.451-4.173,1.851A2.279,2.279,0,0,0,65.3,676.6v4.1H63.4v-4.1a4.185,4.185,0,0,1,2.488-3.822l4.709-2.089a1.148,1.148,0,0,1,1.386.356l1.5,1.956,1.538-1.98a1.161,1.161,0,0,1,1.367-.332l4.69,2.089a4.191,4.191,0,0,1,2.483,3.822Z" transform="translate(0 -504.733)"/>
    <path id="Path_84512" data-name="Path 84512" d="M260.794,293.921h1.9v2.25h-1.9Zm-5.094-3.893h1.9v6.143h-1.9Zm9.627-10.6-1.234-1.443,8.63-7.363,2.578,2.62,7.073-6.342,1.268,1.415-8.426,7.548-2.606-2.649Z" transform="translate(-183.171 -120.209)"/>
    <path id="Path_84513" data-name="Path 84513" d="M463.983,267.933h-1.9V263.7H457.85v-1.9h6.133ZM444.7,277.907h1.9v3.731h-1.9Zm8.236-3.371h1.9v7.1h-1.9Zm8.236-3.375h1.9v10.477h-1.9Z" transform="translate(-363.199 -115.351)"/>
    <path id="Path_84514" data-name="Path 84514" d="M287.169,172.511H268.921v-1.9h18.248a.1.1,0,0,0,.1-.1V142.7a.1.1,0,0,0-.1-.1H257.7a.1.1,0,0,0-.1.1v8.735h-1.9V142.7a2,2,0,0,1,2-2h29.466a2,2,0,0,1,2,2v27.8A2,2,0,0,1,287.169,172.511Z" transform="translate(-183.171)"/>
  </g>
</svg>
